<svg xmlns="http://www.w3.org/2000/svg" width="289" height="74" fill="none"><path fill="#fff" fill-rule="evenodd" d="M288.626 41.165c0 .105-.073.19-.163.19-2.525 0-3.871.65-6.023 1.69l-.52.25c-.3.145-.641.056-.982-.148-.345-.206-.721-.548-1.113-.976-.785-.857-1.664-2.092-2.522-3.385-.576-.867-1.145-1.766-1.673-2.599-.259-.41-.509-.803-.743-1.168a39.997 39.997 0 0 0-.959-1.44c-.28-.396-.503-.675-.661-.816-4.217-3.758-10.11-.698-11.119 4.595-.248 1.303-.517 2.283-.809 3.001-.291.717-.613 1.189-.975 1.457-.739.547-1.56.19-2.395-.333a24.032 24.032 0 0 1-.761-.505c-.639-.434-1.315-.893-2.057-1.197-1.027-.42-2.156-.524-3.416.21-.385.224-.927.759-1.534 1.456a42.833 42.833 0 0 0-1.858 2.328 122 122 0 0 0-1.557 2.128l-.001.002c-.202.28-.367.51-.482.665a5.854 5.854 0 0 1-.137.18.817.817 0 0 1-.05.055h-.001a.177.177 0 0 1-.054.038c-.011.004-.059.025-.117 0-.077-.034-.101-.114-.105-.156-.201-1.877-1.105-3.9-2.377-5.378-1.273-1.48-2.89-2.386-4.514-2.094-2.627.47-4.145 2.318-5.41 4.541-.404.712-.778 1.452-1.155 2.198-.216.427-.432.856-.656 1.282-.609 1.161-1.264 2.285-2.073 3.227a.62.62 0 0 1-.333.218.536.536 0 0 1-.347-.048c-.207-.097-.401-.306-.574-.518-.088-.108-.175-.224-.259-.335l-.001-.001a10.04 10.04 0 0 0-.244-.316 2.262 2.262 0 0 0-.222-.242.53.53 0 0 0-.171-.115c-.61-.203-1.429-.25-2.26-.197a11 11 0 0 0-2.27.382c-.988.288-2.242 1.046-3.643 2.01-.761.525-1.551 1.1-2.36 1.69-.686.5-1.384 1.008-2.088 1.502-1.523 1.07-3.05 2.058-4.444 2.672-1.387.613-2.677.87-3.707.429-.787-.339-1.482-.7-2.136-1.05-.115-.06-.228-.122-.341-.182a32.787 32.787 0 0 0-1.553-.801c-1.249-.589-2.556-1.01-4.354-1.01-.826 0-1.292.206-1.602.46a2.285 2.285 0 0 0-.39.428 6.857 6.857 0 0 0-.141.2l-.022.031a4.813 4.813 0 0 1-.166.23c-.116.15-.248.291-.422.393a1.209 1.209 0 0 1-.64.156c-.509-.005-1.231-.238-2.344-.815-1.663-.861-3.156-2.24-4.631-3.671l-.517-.503c-1.306-1.275-2.613-2.55-4.043-3.534-.468-.321-1.295-1.023-2.339-1.91-.364-.31-.755-.641-1.166-.987-1.597-1.343-3.516-2.913-5.435-4.253-1.923-1.342-3.833-2.444-5.413-2.864-.79-.21-1.483-.246-2.049-.07-.56.174-1.003.558-1.301 1.213-.896 1.974-.833 4.147-.768 6.366l.015.52c.064 2.38.04 4.79-1.359 6.887-1.948 2.92-3.321 6.531-3.321 10.33 0 .966-.241 3.828-.604 6.325-.181 1.249-.395 2.418-.627 3.22-.115.395-.24.724-.38.924-.07.1-.158.19-.268.222-.122.036-.235-.009-.327-.098-.886-.86-2.361-1.286-4.146-1.497-1.527-.18-3.251-.2-4.973-.22l-.849-.012c-1.993-.028-3.942-.092-5.509-.45-1.557-.354-2.796-1.012-3.283-2.289-.302-.793-.428-1.56-.516-2.256l-.056-.466c-.059-.513-.112-.97-.221-1.379-.138-.515-.36-.931-.79-1.24-.437-.315-1.106-.53-2.156-.594-1.488-.092-2.497-.4-3.18-.923-.693-.53-1.034-1.266-1.215-2.154-.156-.766-.195-1.662-.239-2.648l-.02-.433c-.054-1.167-.137-2.467-.424-3.885a18.186 18.186 0 0 1-.146-.951l-.049-.347a21.372 21.372 0 0 0-.285-1.651c-.12-.538-.265-1-.442-1.29-.087-.145-.174-.233-.258-.275-.079-.04-.168-.046-.28.004-2.705 1.226-5.487 2.084-8.278 2.945l-.179.055c-2.205.68-3.719 1.048-4.787 1.103-1.074.055-1.733-.206-2.186-.824-.221-.302-.385-.677-.528-1.114-.144-.437-.27-.946-.411-1.519l-.017-.071c-.28-1.136-.625-2.541-1.278-4.216-.565-1.449-1.348-2.442-2.243-3.33-.4-.399-.821-.775-1.256-1.163l-.157-.14c-.49-.438-.994-.895-1.494-1.413-.363-.377-.936-.771-1.61-1.19-.296-.183-.616-.375-.943-.57a58.41 58.41 0 0 1-1.205-.734c-.719-.453-1.407-.932-1.931-1.44-.519-.502-.907-1.062-.97-1.684-.126-1.25-.55-1.827-1.094-2.035-.568-.217-1.32-.058-2.14.323-1.63.758-3.383 2.326-4.104 2.999-.88.82-1.75 1.62-2.61 2.409-6.29 5.78-11.96 10.99-16.118 19.468l-.031.064c-.381.778-1.705 3.48-2.987 5.22-.33.45-.663.841-.981 1.12-.313.275-.635.462-.939.455-.326-.008-.584-.236-.762-.658-.174-.412-.281-1.03-.318-1.886-.11-2.57-.92-5.316-1.969-7.983-.818-2.083-1.776-4.105-2.65-5.949-.244-.517-.482-1.019-.708-1.505-4.266-9.152-8.994-18.581-16.411-24.616-.539-.438-1.02-.82-1.456-1.165-1.163-.922-2.007-1.592-2.767-2.404-1.053-1.125-1.945-2.52-3.32-5.226l-.307-.603c-1.403-2.768-2.903-5.727-4.752-7.767-.99-1.092-2.072-1.912-3.284-2.3-1.21-.386-2.561-.346-4.096.305-.535.227-1.107.687-1.69 1.296-.58.607-1.162 1.353-1.717 2.14-.906 1.286-1.732 2.668-2.36 3.718-.142.238-.274.46-.395.658-4.482 7.4-10.226 13.172-16.038 19.01-.936.94-1.873 1.883-2.808 2.833-.067.07-.17.061-.229-.018a.212.212 0 0 1 .016-.267c.937-.954 1.876-1.898 2.813-2.839 5.813-5.84 11.523-11.578 15.98-18.937.12-.196.25-.415.392-.652.627-1.05 1.463-2.448 2.377-3.746.561-.795 1.155-1.558 1.752-2.182.596-.624 1.204-1.12 1.795-1.37 1.593-.675 3.013-.723 4.294-.314 1.279.41 2.406 1.27 3.421 2.39 1.884 2.078 3.407 5.082 4.803 7.838l.312.614c1.37 2.695 2.243 4.053 3.26 5.14.742.792 1.56 1.44 2.712 2.354.439.348.927.735 1.478 1.183 7.488 6.093 12.248 15.6 16.51 24.746.225.482.461.98.705 1.495.874 1.846 1.84 3.885 2.664 5.983 1.054 2.682 1.885 5.48 1.998 8.12.036.839.14 1.396.285 1.74.14.333.306.44.477.445.192.005.44-.118.736-.378.291-.256.607-.625.93-1.064 1.261-1.712 2.572-4.387 2.953-5.165l.03-.06c4.19-8.547 9.913-13.804 16.201-19.58.859-.79 1.728-1.588 2.606-2.406.72-.672 2.507-2.274 4.187-3.055.835-.389 1.68-.592 2.361-.33.705.269 1.181 1.01 1.316 2.35.048.472.352.95.855 1.437.498.483 1.162.947 1.877 1.398.397.25.797.489 1.19.724.325.194.646.386.957.579.673.418 1.277.83 1.673 1.24a27.3 27.3 0 0 0 1.476 1.396l.158.14c.433.388.861.77 1.268 1.175.917.91 1.737 1.946 2.328 3.462.664 1.7 1.014 3.128 1.293 4.265l.019.075c.141.576.264 1.07.401 1.487.137.418.285.749.472 1.004.362.493.901.744 1.925.691 1.029-.052 2.511-.41 4.717-1.09l.173-.053c2.795-.862 5.562-1.716 8.25-2.934a.588.588 0 0 1 .527 0c.158.08.288.228.395.404.212.35.369.868.491 1.415.123.55.215 1.153.291 1.684l.05.36c.053.38.098.699.141.913.293 1.452.377 2.78.432 3.95l.02.437c.044.992.082 1.849.231 2.578.167.823.472 1.463 1.076 1.925.613.47 1.553.771 3.019.861 1.074.066 1.805.287 2.31.65.512.368.775.87.929 1.45.118.443.176.943.236 1.462.017.146.034.293.053.441.086.685.207 1.412.491 2.157.417 1.093 1.506 1.72 3.049 2.072 1.533.35 3.453.414 5.45.443l.846.01c1.721.02 3.462.041 5.005.223 1.789.211 3.354.643 4.321 1.583.031.029.04.022.04.022.012-.004.044-.022.095-.094.1-.144.211-.416.324-.807.223-.771.433-1.916.614-3.161.362-2.49.6-5.327.6-6.262 0-3.905 1.409-7.596 3.389-10.563 1.321-1.978 1.355-4.258 1.291-6.642l-.015-.536c-.066-2.2-.133-4.472.806-6.54.341-.75.86-1.2 1.504-1.401.637-.199 1.389-.151 2.205.066 1.633.434 3.579 1.563 5.508 2.909 1.932 1.349 3.86 2.926 5.459 4.271.42.353.816.69 1.183 1.002 1.037.88 1.843 1.565 2.296 1.876 1.455 1 2.784 2.297 4.087 3.57l.516.501c1.476 1.432 2.938 2.78 4.555 3.617 1.106.573 1.777.777 2.214.782a.923.923 0 0 0 .492-.116c.124-.072.225-.176.327-.307.051-.066.101-.138.154-.215.052-.076.108-.158.169-.24.121-.165.263-.337.45-.49.377-.311.914-.53 1.789-.53 1.848 0 3.198.435 4.476 1.038.526.247 1.04.524 1.57.809l.338.181c.652.349 1.337.705 2.113 1.038.915.393 2.109.178 3.479-.427 1.365-.602 2.871-1.574 4.391-2.642.691-.485 1.388-.993 2.076-1.494.816-.594 1.617-1.177 2.374-1.7 1.4-.964 2.691-1.749 3.731-2.052a11.267 11.267 0 0 1 2.33-.392c.845-.054 1.706-.01 2.367.21a.818.818 0 0 1 .282.181c.087.08.174.177.258.28.083.102.167.214.25.324l.003.003c.085.113.168.223.251.325.171.21.324.364.46.428.065.03.118.037.164.027.047-.01.101-.04.164-.114.781-.91 1.42-2.003 2.026-3.157.217-.414.431-.837.646-1.262.38-.753.763-1.51 1.171-2.229 1.286-2.26 2.872-4.212 5.631-4.707 1.763-.316 3.478.672 4.794 2.2 1.229 1.43 2.133 3.355 2.419 5.21l.424-.588.003-.003c.402-.56.956-1.33 1.56-2.134a43.761 43.761 0 0 1 1.875-2.348c.606-.695 1.18-1.27 1.616-1.525 1.357-.79 2.58-.674 3.67-.228.773.316 1.493.805 2.141 1.246.252.171.494.336.723.48.846.528 1.502.765 2.067.346.29-.215.578-.616.855-1.3.278-.682.54-1.63.786-2.92 1.057-5.546 7.216-8.75 11.633-4.814.191.17.435.48.715.875.283.399.61.897.968 1.455.237.37.488.764.748 1.175.526.83 1.092 1.723 1.665 2.587.856 1.291 1.722 2.506 2.487 3.34.383.419.734.733 1.039.916.309.184.541.216.71.135l.525-.253c2.152-1.04 3.551-1.716 6.142-1.716.09 0 .163.085.163.19Z" clip-rule="evenodd"/></svg>